<mxfile host="app.diagrams.net" agent="Mozilla/5.0 (Windows NT 10.0; Win64; x64; rv:135.0) Gecko/20100101 Firefox/135.0" version="26.0.13">
  <diagram name="Page-1" id="ZyI50GSD2OCSiYya33_l">
    <mxGraphModel dx="1434" dy="774" grid="1" gridSize="10" guides="1" tooltips="1" connect="1" arrows="1" fold="1" page="1" pageScale="1" pageWidth="850" pageHeight="1100" math="0" shadow="0">
      <root>
        <mxCell id="0" />
        <mxCell id="1" parent="0" />
        <mxCell id="YGHJIajYnW2gjYeQ1du6-2" style="edgeStyle=orthogonalEdgeStyle;rounded=0;orthogonalLoop=1;jettySize=auto;html=1;" parent="1" source="YGHJIajYnW2gjYeQ1du6-1" edge="1">
          <mxGeometry relative="1" as="geometry">
            <mxPoint x="400" y="400" as="targetPoint" />
          </mxGeometry>
        </mxCell>
        <mxCell id="YGHJIajYnW2gjYeQ1du6-3" value="Safety" style="edgeLabel;html=1;align=center;verticalAlign=middle;resizable=0;points=[];" parent="YGHJIajYnW2gjYeQ1du6-2" vertex="1" connectable="0">
          <mxGeometry x="0.9342" y="1" relative="1" as="geometry">
            <mxPoint x="-1" y="-73" as="offset" />
          </mxGeometry>
        </mxCell>
        <mxCell id="YGHJIajYnW2gjYeQ1du6-4" style="edgeStyle=orthogonalEdgeStyle;rounded=0;orthogonalLoop=1;jettySize=auto;html=1;" parent="1" source="YGHJIajYnW2gjYeQ1du6-1" edge="1">
          <mxGeometry relative="1" as="geometry">
            <mxPoint x="170" y="400" as="targetPoint" />
            <Array as="points">
              <mxPoint x="170" y="193" />
            </Array>
          </mxGeometry>
        </mxCell>
        <mxCell id="YGHJIajYnW2gjYeQ1du6-7" value="Control" style="edgeLabel;html=1;align=center;verticalAlign=middle;resizable=0;points=[];" parent="YGHJIajYnW2gjYeQ1du6-4" vertex="1" connectable="0">
          <mxGeometry x="0.4464" y="1" relative="1" as="geometry">
            <mxPoint y="-1" as="offset" />
          </mxGeometry>
        </mxCell>
        <mxCell id="YGHJIajYnW2gjYeQ1du6-6" style="edgeStyle=orthogonalEdgeStyle;rounded=0;orthogonalLoop=1;jettySize=auto;html=1;" parent="1" source="YGHJIajYnW2gjYeQ1du6-1" edge="1">
          <mxGeometry relative="1" as="geometry">
            <mxPoint x="600" y="410" as="targetPoint" />
            <Array as="points">
              <mxPoint x="600" y="193" />
            </Array>
          </mxGeometry>
        </mxCell>
        <mxCell id="YGHJIajYnW2gjYeQ1du6-8" value="Interaction" style="edgeLabel;html=1;align=center;verticalAlign=middle;resizable=0;points=[];" parent="YGHJIajYnW2gjYeQ1du6-6" vertex="1" connectable="0">
          <mxGeometry x="0.464" y="4" relative="1" as="geometry">
            <mxPoint as="offset" />
          </mxGeometry>
        </mxCell>
        <mxCell id="YGHJIajYnW2gjYeQ1du6-1" value="&lt;div&gt;Droneswarm2&lt;br&gt;Applications&lt;/div&gt;" style="text;html=1;align=center;verticalAlign=middle;resizable=0;points=[];autosize=1;strokeColor=none;fillColor=none;" parent="1" vertex="1">
          <mxGeometry x="350" y="173" width="100" height="40" as="geometry" />
        </mxCell>
        <mxCell id="YGHJIajYnW2gjYeQ1du6-10" value="" style="endArrow=classic;startArrow=classic;html=1;rounded=0;" parent="1" edge="1">
          <mxGeometry width="50" height="50" relative="1" as="geometry">
            <mxPoint x="105" y="440" as="sourcePoint" />
            <mxPoint x="185" y="480" as="targetPoint" />
            <Array as="points">
              <mxPoint x="165" y="400" />
            </Array>
          </mxGeometry>
        </mxCell>
        <mxCell id="YGHJIajYnW2gjYeQ1du6-11" value="High Level" style="edgeLabel;html=1;align=center;verticalAlign=middle;resizable=0;points=[];" parent="YGHJIajYnW2gjYeQ1du6-10" vertex="1" connectable="0">
          <mxGeometry x="-0.6591" y="2" relative="1" as="geometry">
            <mxPoint as="offset" />
          </mxGeometry>
        </mxCell>
        <mxCell id="YGHJIajYnW2gjYeQ1du6-12" value="Low Level" style="edgeLabel;html=1;align=center;verticalAlign=middle;resizable=0;points=[];" parent="YGHJIajYnW2gjYeQ1du6-10" vertex="1" connectable="0">
          <mxGeometry x="0.4351" y="3" relative="1" as="geometry">
            <mxPoint as="offset" />
          </mxGeometry>
        </mxCell>
        <mxCell id="YGHJIajYnW2gjYeQ1du6-13" value="Trajectory tracking" style="text;html=1;align=center;verticalAlign=middle;resizable=0;points=[];autosize=1;strokeColor=none;fillColor=none;" parent="1" vertex="1">
          <mxGeometry x="125" y="478" width="120" height="30" as="geometry" />
        </mxCell>
        <mxCell id="YGHJIajYnW2gjYeQ1du6-14" value="MATA/MAPF" style="text;html=1;align=center;verticalAlign=middle;resizable=0;points=[];autosize=1;strokeColor=none;fillColor=none;" parent="1" vertex="1">
          <mxGeometry x="60" y="440" width="90" height="30" as="geometry" />
        </mxCell>
        <mxCell id="YGHJIajYnW2gjYeQ1du6-15" value="&lt;div&gt;Event based vision for agile flight&amp;nbsp;&lt;/div&gt;&lt;div&gt;in highly dynamic environments&lt;/div&gt;" style="text;html=1;align=center;verticalAlign=middle;resizable=0;points=[];autosize=1;strokeColor=none;fillColor=none;" parent="1" vertex="1">
          <mxGeometry x="300" y="460" width="200" height="40" as="geometry" />
        </mxCell>
        <mxCell id="YGHJIajYnW2gjYeQ1du6-16" value="Proposals for safety in indoor flight testing" style="text;html=1;align=center;verticalAlign=middle;resizable=0;points=[];autosize=1;strokeColor=none;fillColor=none;" parent="1" vertex="1">
          <mxGeometry x="275" y="420" width="250" height="30" as="geometry" />
        </mxCell>
        <mxCell id="YGHJIajYnW2gjYeQ1du6-17" value="Natural language interaction " style="text;html=1;align=center;verticalAlign=middle;resizable=0;points=[];autosize=1;strokeColor=none;fillColor=none;" parent="1" vertex="1">
          <mxGeometry x="560" y="420" width="170" height="30" as="geometry" />
        </mxCell>
        <mxCell id="YGHJIajYnW2gjYeQ1du6-18" value="XR interaction for machines" style="text;html=1;align=center;verticalAlign=middle;resizable=0;points=[];autosize=1;strokeColor=none;fillColor=none;" parent="1" vertex="1">
          <mxGeometry x="560" y="460" width="170" height="30" as="geometry" />
        </mxCell>
      </root>
    </mxGraphModel>
  </diagram>
</mxfile>
